<svg width="32" height="32" viewBox="0 0 32 32" fill="none" xmlns="http://www.w3.org/2000/svg">
<rect width="32" height="32" fill="#1E1E1E"/>
<g id="favicon-32" clip-path="url(#clip0_0_1)">
<rect width="32" height="32" fill="#005FFF"/>
<path id="Favicon_Text" d="M1.71172 25.2V6.4H7.31172V8.7H4.21172V22.9H7.31172V25.2H1.71172ZM15.4039 23.22C13.9239 23.22 12.7506 22.8133 11.8839 22C11.0306 21.1733 10.6039 20.0667 10.6039 18.68H13.1039C13.1039 19.4133 13.3106 19.9867 13.7239 20.4C14.1372 20.8133 14.6972 21.02 15.4039 21.02C16.1106 21.02 16.6706 20.82 17.0839 20.42C17.4972 20.0067 17.7039 19.4333 17.7039 18.7V10.72H14.3039V8.4H20.2039V18.7C20.2039 20.1 19.7706 21.2067 18.9039 22.02C18.0506 22.82 16.8839 23.22 15.4039 23.22ZM24.6961 25.2V22.9H27.7961V8.7H24.6961V6.4H30.2961V25.2H24.6961Z" fill="white"/>
</g>
<defs>
<clipPath id="clip0_0_1">
<rect width="32" height="32" fill="white"/>
</clipPath>
</defs>
</svg>
